HIERARCHY
ROOT Hips
{
	OFFSET 0.00000 0.00000 0.00000
	CHANNELS 6 Xposition Yposition Zposition Zrotation Yrotation Xrotation 
	JOINT LHipJoint
	{
		OFFSET 0 0 0
		CHANNELS 3 Zrotation Yrotation Xrotation
		JOINT LeftHip
		{
			OFFSET 1.27966 -1.91611 0.81506
			CHANNELS 3 Zrotation Yrotation Xrotation
			JOINT LeftKnee
			{
				OFFSET 2.49511 -6.85528 0.00000
				CHANNELS 3 Zrotation Yrotation Xrotation
				JOINT LeftAnkle
				{
					OFFSET 2.67286 -7.34045 0.00000
					CHANNELS 3 Zrotation Yrotation Xrotation
					JOINT LeftToe
					{
						OFFSET 0.22740 -0.62477 2.32102
						CHANNELS 3 Zrotation Yrotation Xrotation
						End Site
						{
							OFFSET 0.00000 -0.00000 1.20480
						}
					}
				}
			}
		}
	}
	JOINT RHipJoint
	{
		OFFSET 0 0 0
		CHANNELS 3 Zrotation Yrotation Xrotation
		JOINT RightHip
		{
			OFFSET -1.09666 -1.91611 0.81505
			CHANNELS 3 Zrotation Yrotation Xrotation
			JOINT RightKnee
			{
				OFFSET -2.51373 -6.90642 0.00000
				CHANNELS 3 Zrotation Yrotation Xrotation
				JOINT RightAnkle
				{
					OFFSET -2.70173 -7.42295 0.00000
					CHANNELS 3 Zrotation Yrotation Xrotation
					JOINT RightToe
					{
						OFFSET -0.22214 -0.61032 2.18267
						CHANNELS 3 Zrotation Yrotation Xrotation
						End Site
						{
							OFFSET -0.00000 -0.00000 1.13683
						}
					}
				}
			}
		}
	}
	JOINT lowerback
	{
		OFFSET 0 0 0
		CHANNELS 3 Zrotation Yrotation Xrotation
		JOINT Chest
		{
			OFFSET -0.00990 2.16804 -0.08389
			CHANNELS 3 Zrotation Yrotation Xrotation
			JOINT Chest2
			{
				OFFSET 0.06407 2.15456 0.07285
				CHANNELS 3 Zrotation Yrotation Xrotation
				JOINT lowerneck
				{
					OFFSET 0 0 0
					CHANNELS 3 Zrotation Yrotation Xrotation
					JOINT Neck
					{
						OFFSET -0.16931 1.61602 0.24462
						CHANNELS 3 Zrotation Yrotation Xrotation
						JOINT Head
						{
							OFFSET 0.21556 1.63376 -0.33896
							CHANNELS 3 Zrotation Yrotation Xrotation
							End Site
							{
								OFFSET 0.08444 1.69244 -0.14900
							}
						}
					}
				}
				JOINT LeftCollar
				{
					OFFSET 0 0 0
					CHANNELS 3 Zrotation Yrotation Xrotation
					JOINT LeftShoulder
					{
						OFFSET 2.89000 1.40150 -0.54392
CHANNELS 3 Zrotation Xrotation Yrotation
						JOINT LeftElbow
						{
OFFSET 0 -5.107550 0.000000
CHANNELS 3 Zrotation Xrotation Yrotation
							JOINT LeftWrist
							{
OFFSET 0 -3.362530 0.000000
CHANNELS 3 Zrotation Xrotation Yrotation
								JOINT lhand
								{
									OFFSET 0 0 0
CHANNELS 3 Zrotation Xrotation Yrotation
									JOINT LFingers
									{
OFFSET 0 -0.619090 0.000000
CHANNELS 3 Zrotation Xrotation Yrotation
										End Site
										{
OFFSET 0 -0.499120 0.000000
										}
									}
								}
								JOINT LThumb
								{
OFFSET 0 0.000000 0.000000
CHANNELS 3 Zrotation Xrotation Yrotation
									End Site
									{
OFFSET 0 -0.506750 0.506750
									}
								}
							}
						}
					}
				}
				JOINT RightCollar
				{
					OFFSET 0 0 0
					CHANNELS 3 Zrotation Yrotation Xrotation
					JOINT RightShoulder
					{
						OFFSET -2.65771 1.70968 -0.54312
CHANNELS 3 Zrotation Xrotation Yrotation
						JOINT RightElbow
						{
OFFSET 0 -5.273870 0.000000
CHANNELS 3 Zrotation Xrotation Yrotation
							JOINT RightWrist
							{
OFFSET 0 -3.401440 0.000000
CHANNELS 3 Zrotation Xrotation Yrotation
								JOINT rhand
								{
									OFFSET 0 0 0
CHANNELS 3 Zrotation Xrotation Yrotation
									JOINT RFingers
									{
OFFSET 0 -0.742820 0.000000
CHANNELS 3 Zrotation Xrotation Yrotation
										End Site
										{
OFFSET 0 -0.598880 0.000000
										}
									}
								}
								JOINT RThumb
								{
OFFSET 0 0.000000 0.000000
CHANNELS 3 Zrotation Xrotation Yrotation
									End Site
									{
OFFSET 0 -0.608030 0.608030
									}
								}
							}
						}
					}
				}
			}
		}
	}
}
MOTION
Frames: 11
Frame Time: 0.008333333333333333
2.146849 16.956363 0.412187 -2.000464 35.742002 -3.695541 0.000000 0.000000 0.000000 -14.120420 11.847911 2.406189 3.454445 11.396718 33.629867 3.026517 -4.213753 -31.982914 0.894738 -6.028376 -16.867035 0.000000 0.000000 0.000000 4.820039 8.475619 -25.661836 -4.232948 -12.464015 37.393891 0.030110 -4.399719 -4.949159 -1.422785 7.542933 -21.334200 -3.415919 -3.772911 11.948590 3.011993 -5.290266 -0.988283 6.058712 -2.388752 -7.149132 -19.280894 -12.150607 -8.756223 21.627103 -17.335714 11.913619 8.342613 -7.810427 8.893255 0.000000 0.000000 0.000000 -5.755143 -16.100346 -75.227197 141.873717 -46.919771 102.942175 12.053538 -3.148782 -7.016671 0.000000 0.000000 0.000000 -7.125000 0.000000 0.000000 -12.433393 36.895769 -2.526723 0.000000 0.000000 0.000000 -14.545466 -5.585018 35.603277 -152.194566 -38.936483 -109.998834 -14.280728 -17.698723 -32.662946 0.000000 0.000000 0.000000 7.125000 0.000000 0.000000 9.914034 -3.061259 10.588748
2.410034 16.855168 0.308158 -2.756754 27.391686 -2.133879 0.000000 0.000000 0.000000 -15.681346 15.632432 0.282585 3.520673 11.493497 33.963145 3.490045 -1.539883 -35.051062 0.903395 -6.057130 -16.950259 0.000000 0.000000 0.000000 2.984584 12.530643 -32.947813 -5.134277 -13.533255 41.399153 0.142437 6.803164 1.027389 -0.774441 5.615976 -15.674969 -1.820938 -5.685940 12.659509 4.549598 -7.478261 -2.395136 7.390787 -3.393809 -8.801850 -15.201730 -9.021389 -12.641735 19.189319 -13.153912 15.813489 7.483919 -5.503762 9.440664 0.000000 0.000000 0.000000 -7.731465 -21.508478 -69.463128 141.032820 -47.445924 102.325437 11.746889 -1.854590 -6.269575 0.000000 0.000000 0.000000 -7.125000 0.000000 0.000000 -12.549652 36.133391 -2.789929 0.000000 0.000000 0.000000 -26.328873 -4.427115 12.680804 -153.611352 -37.589863 -110.876312 -16.870282 -27.700880 -27.946478 0.000000 0.000000 0.000000 7.125000 0.000000 0.000000 7.971186 1.220412 7.874430
2.598212 16.371447 0.743601 0.661951 20.508646 -0.894482 0.000000 0.000000 0.000000 -17.432940 22.560344 -2.750547 5.226201 13.633316 41.789398 3.761490 -4.531387 -35.789025 2.045660 -8.958720 -25.667562 0.000000 0.000000 0.000000 -2.291479 16.242856 -39.435594 -4.274966 -12.517102 37.587479 0.018023 -3.783622 -4.540279 -0.401996 4.027370 -11.159486 -5.074854 -8.297095 15.588200 6.880471 -11.387779 -0.583004 12.633650 -5.304007 -6.819396 -11.777742 -4.312560 -15.062633 15.881863 -6.225247 15.499184 6.631611 -2.222819 8.171764 0.000000 0.000000 0.000000 10.883029 -31.270189 -27.948477 141.162397 -47.365959 102.420743 10.734658 -8.702482 -11.871142 0.000000 0.000000 0.000000 -7.125000 0.000000 0.000000 -14.638085 41.595380 -1.256273 0.000000 0.000000 0.000000 -35.490604 12.142415 -27.305989 -148.704083 -41.973493 -107.730849 -14.319103 -47.172073 -20.308552 0.000000 0.000000 0.000000 7.125000 0.000000 0.000000 9.060173 9.283748 7.577867
2.793617 15.671005 1.997072 5.110299 10.177482 2.435977 0.000000 0.000000 0.000000 -21.858299 26.748706 -2.548252 6.302323 14.715042 46.183504 4.034652 -3.624281 -37.305659 3.600190 -11.608412 -34.360430 0.000000 0.000000 0.000000 -7.758765 22.694109 -47.827685 -2.940432 -10.597943 30.935701 -0.002845 -0.021467 -1.028183 -0.795112 5.691578 -15.892211 -5.367485 -9.096279 18.023848 9.045159 -12.400615 1.669767 15.604897 -6.059862 -4.823187 -9.300496 1.200116 -19.379168 9.559515 2.461767 13.805177 4.976299 1.604535 7.154834 0.000000 0.000000 0.000000 32.505514 -4.210966 17.597311 142.508889 -46.510883 103.404500 14.135507 -23.004248 -9.208806 0.000000 0.000000 0.000000 -7.125000 0.000000 0.000000 -11.103478 39.237249 -1.599664 0.000000 0.000000 0.000000 -29.464835 31.892101 -44.755514 -92.536645 -59.973469 -62.196625 -8.408338 -54.891318 -21.512575 0.000000 0.000000 0.000000 7.125000 0.000000 0.000000 12.828390 8.686408 11.031490
2.842029 15.041215 4.210601 10.231589 13.880967 9.274395 0.000000 0.000000 0.000000 -23.135363 20.380970 5.156105 4.987436 13.368906 40.766889 3.401453 -7.394350 -33.554002 3.542067 -11.523822 -34.068768 0.000000 0.000000 0.000000 -12.828396 14.280883 -62.188504 -7.806712 -15.970975 51.856335 0.362432 11.671730 9.505716 -1.676599 8.152702 -23.181462 -3.076730 -7.683482 17.018246 11.827518 -9.767488 1.105700 17.189678 -4.669070 -5.518444 -10.719049 1.936468 -22.100485 1.204356 5.444440 7.213587 2.636804 2.426558 5.381004 0.000000 0.000000 0.000000 12.443179 7.051867 20.245337 155.391434 -35.799537 111.939527 14.713149 -27.698075 -9.603547 0.000000 0.000000 0.000000 -7.125000 0.000000 0.000000 -10.687277 39.681538 -1.420041 0.000000 0.000000 0.000000 -10.163040 35.744997 -48.732361 -37.056205 -46.223792 -16.281234 -3.926132 -64.805222 -20.647897 0.000000 0.000000 0.000000 7.125000 0.000000 0.000000 15.644371 9.873577 13.245678
2.519633 15.665157 6.275735 13.921734 45.126057 9.703067 0.000000 0.000000 0.000000 -7.209047 3.220481 12.005888 4.393442 12.666279 38.131752 -0.296134 -12.884249 -4.439286 2.886963 -10.509678 -30.643707 0.000000 0.000000 0.000000 -9.882777 -3.725730 -45.358435 -10.363548 -17.609196 60.696686 -0.244122 3.113723 -8.792913 -2.266119 9.399049 -27.052208 4.738465 -4.145714 16.949734 11.953842 -2.836426 -1.812040 11.660874 -1.001290 -11.281732 -16.295754 -7.528738 -14.981860 1.322949 -7.068728 2.108773 2.379307 -3.606413 3.581505 0.000000 0.000000 0.000000 -5.368905 0.376205 -30.193235 156.524916 -34.604283 112.593600 10.185596 -22.393914 -6.154857 0.000000 0.000000 0.000000 -7.125000 0.000000 0.000000 -13.809331 35.932590 -3.152484 0.000000 0.000000 0.000000 -13.475417 12.030517 -36.552996 -36.614406 -45.930515 -15.962541 -3.457588 -70.682838 -21.346006 0.000000 0.000000 0.000000 7.125000 0.000000 0.000000 15.913221 9.232505 13.707976
2.115689 16.709130 7.017873 19.211225 61.285614 14.068420 0.000000 0.000000 0.000000 -2.990678 -6.798375 3.374959 5.056808 13.447504 41.067607 0.498037 -7.249874 17.914294 2.043540 -8.950943 -25.645680 0.000000 0.000000 0.000000 -6.850973 -6.127418 -28.990901 -6.867591 -15.218810 48.370783 -0.077689 -9.250244 -14.470351 -1.552992 7.865339 -22.305757 11.606418 0.939534 15.506433 6.593840 4.725552 -4.235153 -0.392401 1.671819 -13.295104 -20.180668 -14.069031 -0.929759 3.295743 -18.386986 0.481026 3.214041 -9.203486 2.319414 0.000000 0.000000 0.000000 3.862628 -1.270015 -31.105437 159.316373 -31.456863 114.115900 9.304783 -18.245180 -6.260747 0.000000 0.000000 0.000000 -7.125000 0.000000 0.000000 -14.550065 35.987270 -3.310613 0.000000 0.000000 0.000000 -71.466510 -16.189071 -46.868661 -55.088112 -54.848008 -30.289078 -4.566189 -70.696780 -22.021406 0.000000 0.000000 0.000000 7.125000 0.000000 0.000000 15.208429 8.507131 13.293840
1.757173 17.337127 7.702855 23.856408 73.443439 17.231608 0.000000 0.000000 0.000000 2.177512 -11.679398 4.269540 2.880708 10.499290 30.609185 2.335383 -5.039441 31.000088 1.712582 -8.238640 -23.441927 0.000000 0.000000 0.000000 -1.154137 -9.841183 -16.848693 -4.444146 -12.728934 38.362263 0.567456 -18.024367 -19.769153 -0.927977 6.136575 -17.181238 11.548959 3.325105 15.314568 3.004081 7.276007 -4.237584 -4.935413 2.690451 -12.400973 -21.957143 -16.523659 5.657410 14.349884 -23.229521 -4.033593 6.718933 -11.679633 2.064841 0.000000 0.000000 0.000000 0.942495 -6.147024 -27.697458 161.238849 -29.120838 115.085933 9.400667 -13.789488 -5.897738 0.000000 0.000000 0.000000 -7.125000 0.000000 0.000000 -14.400611 35.636605 -3.401333 0.000000 0.000000 0.000000 -104.053826 -18.974154 -55.756263 -82.241616 -59.771230 -53.286259 3.409367 -64.333604 -24.681016 0.000000 0.000000 0.000000 7.125000 0.000000 0.000000 19.884152 6.421582 18.729736
1.407586 17.352890 7.720248 13.558742 78.571770 7.989525 0.000000 0.000000 0.000000 6.784570 -13.378620 1.814389 2.800519 10.365007 30.166942 1.554657 -6.058838 26.412809 2.650446 -10.106276 -29.321717 0.000000 0.000000 0.000000 2.707785 -14.487916 -17.493285 -4.043423 -12.217970 36.507384 0.039762 -13.976050 -19.399065 -0.095360 1.888046 -5.200232 8.987909 4.583053 15.843329 1.136065 8.129598 -3.328467 -5.779452 3.264135 -11.524188 -18.478761 -18.429274 5.799461 16.668515 -25.484955 -5.566982 6.759517 -12.870295 1.897241 0.000000 0.000000 0.000000 2.832653 -6.443150 -31.328575 160.283630 -30.299066 114.612468 7.073085 -15.520231 -5.116535 0.000000 0.000000 0.000000 -7.125000 0.000000 0.000000 -16.125975 34.754464 -4.196171 0.000000 0.000000 0.000000 -97.056509 -16.275519 -56.160772 -88.047448 -59.985256 -58.309148 -1.173661 -66.273390 -23.298514 0.000000 0.000000 0.000000 7.125000 0.000000 0.000000 17.242526 7.505353 15.584409
1.267490 16.827756 6.711286 1.411791 72.221537 -2.670640 0.000000 0.000000 0.000000 4.904261 -12.312838 6.109098 3.182695 10.984875 32.229125 -0.134178 -6.596351 1.655214 1.771012 -8.371778 -23.849214 0.000000 0.000000 0.000000 2.143558 -13.888340 -25.629706 -5.173495 -13.576254 41.566297 -0.225290 -7.406837 -14.559257 -1.211432 6.981888 -19.661923 6.759226 3.677384 15.866629 2.110492 6.473843 -1.698378 -3.057617 2.776347 -10.283760 -22.801303 -16.912327 3.967073 20.064086 -23.614093 -3.977578 8.187042 -11.869685 3.325506 0.000000 0.000000 0.000000 1.810383 -3.651217 -27.728349 159.627931 -31.088033 114.277743 10.378596 -11.713842 -5.353684 0.000000 0.000000 0.000000 -7.125000 0.000000 0.000000 -13.502506 35.152498 -3.343019 0.000000 0.000000 0.000000 -79.817976 -19.382263 -41.685869 -114.380352 -57.625053 -80.945012 -12.018930 -65.204767 -21.227282 0.000000 0.000000 0.000000 7.125000 0.000000 0.000000 10.550747 8.614747 9.010360
1.430523 16.165694 4.968864 -0.579120 65.009932 -4.349452 0.000000 0.000000 0.000000 -1.197540 -9.302021 10.213396 3.626434 11.646004 34.490869 1.974982 -4.780144 -25.498245 1.780822 -8.391794 -23.911769 0.000000 0.000000 0.000000 -2.425028 -7.978002 -29.543128 -5.122863 -13.520683 41.350552 0.238744 -8.898825 -5.602557 -1.644217 8.081571 -22.962369 2.086977 2.369211 15.334295 3.250068 3.879706 -0.444822 1.425344 1.872680 -9.200936 -22.823680 -16.907039 2.908552 22.229294 -23.477346 -4.032754 8.746454 -11.769512 3.780678 0.000000 0.000000 0.000000 1.415743 -1.947520 -34.210179 158.149873 -32.807262 113.495515 16.207506 -1.320995 -4.805698 0.000000 0.000000 0.000000 -7.125000 0.000000 0.000000 -8.656518 34.878351 -2.172087 0.000000 0.000000 0.000000 -48.119747 -14.173201 -15.733816 -145.895159 -44.161483 -105.813698 -14.154307 -36.474694 -22.630043 0.000000 0.000000 0.000000 7.125000 0.000000 0.000000 9.256769 6.966299 8.176217
